{
  "accessors": [
    {
      "name": "KitchenaidArtisanMiniEmpireRed_000_LOD001_1_positions",
      "componentType": 5126,
      "count": 21685,
      "min": [
        -0.09719999879598618,
        0,
        -0.1550000011920929
      ],
      "max": [
        0.09719999879598618,
        0.31060001254081726,
        0.1550000011920929
      ],
      "type": "VEC3",
      "bufferView": 0,
      "byteOffset": 0
    },
    {
      "name": "KitchenaidArtisanMiniEmpireRed_000_LOD001_1_normals",
      "componentType": 5126,
      "count": 21685,
      "min": [
        -1,
        -1,
        -1
      ],
      "max": [
        1,
        1,
        1
      ],
      "type": "VEC3",
      "bufferView": 0,
      "byteOffset": 260220
    },
    {
      "name": "KitchenaidArtisanMiniEmpireRed_000_LOD001_1_texcoords",
      "componentType": 5126,
      "count": 21685,
      "min": [
        0.016300000250339508,
        0.016300000250339508
      ],
      "max": [
        0.9890999794006348,
        0.9822999835014343
      ],
      "type": "VEC2",
      "bufferView": 1,
      "byteOffset": 0
    },
    {
      "name": "KitchenaidArtisanMiniEmpireRed_000_LOD001_1_0_indices",
      "componentType": 5123,
      "count": 117483,
      "min": [
        0
      ],
      "max": [
        21684
      ],
      "type": "SCALAR",
      "bufferView": 2,
      "byteOffset": 0
    }
  ],
  "asset": {
    "generator": "obj2gltf",
    "version": "2.0"
  },
  "buffers": [
    {
      "name": "46782878_357270",
      "byteLength": 928888,
      "uri": "data:application/octet-stream;base64,"
    }
  ],
  "bufferViews": [
    {
      "name": "bufferView_0",
      "buffer": 0,
      "byteLength": 520440,
      "byteOffset": 0,
      "byteStride": 12,
      "target": 34962
    },
    {
      "name": "bufferView_1",
      "buffer": 0,
      "byteLength": 173480,
      "byteOffset": 520440,
      "byteStride": 8,
      "target": 34962
    },
    {
      "name": "bufferView_2",
      "buffer": 0,
      "byteLength": 234968,
      "byteOffset": 693920,
      "target": 34963
    }
  ],
  "materials": [
    {
      "name": "default",
      "pbrMetallicRoughness": {
        "baseColorFactor": [
          0.5,
          0.5,
          0.5,
          1
        ],
        "metallicFactor": 0,
        "roughnessFactor": 1
      },
      "emissiveFactor": [
        0,
        0,
        0
      ],
      "alphaMode": "OPAQUE",
      "doubleSided": false
    }
  ],
  "meshes": [
    {
      "name": "KitchenaidArtisanMiniEmpireRed_000_LOD001_1",
      "primitives": [
        {
          "attributes": {
            "POSITION": 0,
            "NORMAL": 1,
            "TEXCOORD_0": 2
          },
          "indices": 3,
          "material": 0,
          "mode": 4
        }
      ]
    }
  ],
  "nodes": [
    {
      "name": "KitchenaidArtisanMiniEmpireRed_000_LOD001",
      "mesh": 0
    }
  ],
  "scene": 0,
  "scenes": [
    {
      "nodes": [
        0
      ]
    }
  ]
}
