{
  "accessors": [
    {
      "name": "Teapot001_1_positions",
      "componentType": 5126,
      "count": 1748,
      "min": [
        -120,
        0,
        -80
      ],
      "max": [
        137.35279846191406,
        126,
        80
      ],
      "type": "VEC3",
      "bufferView": 0,
      "byteOffset": 0
    },
    {
      "name": "Teapot001_1_normals",
      "componentType": 5126,
      "count": 1748,
      "min": [
        -0.9994080662727356,
        -1,
        -0.9992234706878662
      ],
      "max": [
        0.9992234706878662,
        1,
        0.9992234706878662
      ],
      "type": "VEC3",
      "bufferView": 0,
      "byteOffset": 20976
    },
    {
      "name": "Teapot001_1_texcoords",
      "componentType": 5126,
      "count": 1748,
      "min": [
        0.019999999552965164,
        0.17990000545978546
      ],
      "max": [
        0.9800000190734863,
        0.9800000190734863
      ],
      "type": "VEC2",
      "bufferView": 1,
      "byteOffset": 0
    },
    {
      "name": "Teapot001_1_0_indices",
      "componentType": 5123,
      "count": 9240,
      "min": [
        0
      ],
      "max": [
        1747
      ],
      "type": "SCALAR",
      "bufferView": 2,
      "byteOffset": 0
    }
  ],
  "asset": {
    "generator": "obj2gltf",
    "version": "2.0"
  },
  "buffers": [
    {
      "name": "Teapot",
      "byteLength": 74416,
      "uri": "data:application/octet-stream;base64,"
    }
  ],
  "bufferViews": [
    {
      "name": "bufferView_0",
      "buffer": 0,
      "byteLength": 41952,
      "byteOffset": 0,
      "byteStride": 12,
      "target": 34962
    },
    {
      "name": "bufferView_1",
      "buffer": 0,
      "byteLength": 13984,
      "byteOffset": 41952,
      "byteStride": 8,
      "target": 34962
    },
    {
      "name": "bufferView_2",
      "buffer": 0,
      "byteLength": 18480,
      "byteOffset": 55936,
      "target": 34963
    }
  ],
  "materials": [
    {
      "name": "default",
      "pbrMetallicRoughness": {
        "baseColorFactor": [
          0.5,
          0.5,
          0.5,
          1
        ],
        "metallicFactor": 0,
        "roughnessFactor": 0
      },
      "emissiveFactor": [
        0,
        0,
        0
      ],
      "alphaMode": "OPAQUE",
      "doubleSided": false
    }
  ],
  "meshes": [
    {
      "name": "Teapot001_1",
      "primitives": [
        {
          "attributes": {
            "POSITION": 0,
            "NORMAL": 1,
            "TEXCOORD_0": 2
          },
          "indices": 3,
          "material": 0,
          "mode": 4
        }
      ]
    }
  ],
  "nodes": [
    {
      "name": "Teapot001",
      "mesh": 0
    }
  ],
  "scene": 0,
  "scenes": [
    {
      "nodes": [
        0
      ]
    }
  ]
}
