{
  "accessors": [
    {
      "bufferView": 2,
      "componentType": 5126,
      "count": 2179,
      "max": [
        11.42870044708252,
        14.624199867248535,
        209.89169311523438
      ],
      "min": [
        -11.633399963378906,
        -12.292599678039551,
        165.00700378417969
      ],
      "type": "VEC3"
    },
    {
      "bufferView": 2,
      "byteOffset": 26148,
      "componentType": 5126,
      "count": 2179,
      "max": [
        0.99708014726638794,
        0.99741232395172119,
        0.99942135810852051
      ],
      "min": [
        -0.99879080057144165,
        -0.99990165233612061,
        -0.99991357326507568
      ],
      "type": "VEC3"
    },
    {
      "bufferView": 3,
      "componentType": 5126,
      "count": 2179,
      "max": [
        0.99980270862579346,
        0.99872511625289917,
        0.99856525659561157,
        1
      ],
      "min": [
        -0.98806655406951904,
        -0.97890114784240723,
        -0.99901258945465088,
        -1
      ],
      "type": "VEC4"
    },
    {
      "bufferView": 1,
      "componentType": 5126,
      "count": 2179,
      "max": [
        0.99119997024536133,
        0.9879000186920166
      ],
      "min": [
        0.0048000002279877663,
        0.0073000001721084118
      ],
      "type": "VEC2"
    },
    {
      "bufferView": 0,
      "componentType": 5125,
      "count": 9999,
      "max": [
        2178
      ],
      "min": [
        0
      ],
      "type": "SCALAR"
    },
    {
      "bufferView": 2,
      "byteOffset": 52296,
      "componentType": 5126,
      "count": 418,
      "max": [
        8.8184995651245117,
        13.912899971008301,
        199.03590393066406
      ],
      "min": [
        -11.633399963378906,
        -11.579999923706055,
        165.00700378417969
      ],
      "type": "VEC3"
    },
    {
      "bufferView": 2,
      "byteOffset": 57312,
      "componentType": 5126,
      "count": 418,
      "max": [
        0.99575120210647583,
        0.98400986194610596,
        0.99936830997467041
      ],
      "min": [
        -0.99783891439437866,
        -0.99328958988189697,
        -0.99961084127426147
      ],
      "type": "VEC3"
    },
    {
      "bufferView": 3,
      "byteOffset": 34864,
      "componentType": 5126,
      "count": 418,
      "max": [
        0.98146718740463257,
        0.99943751096725464,
        0.95102578401565552,
        1
      ],
      "min": [
        -0.87685376405715942,
        -0.98607999086380005,
        -0.98295921087265015,
        -1
      ],
      "type": "VEC4"
    },
    {
      "bufferView": 1,
      "byteOffset": 17432,
      "componentType": 5126,
      "count": 418,
      "max": [
        0.98540002107620239,
        0.94849997758865356
      ],
      "min": [
        0.010200000368058681,
        0.0073000001721084118
      ],
      "type": "VEC2"
    },
    {
      "bufferView": 0,
      "byteOffset": 39996,
      "componentType": 5125,
      "count": 1731,
      "max": [
        417
      ],
      "min": [
        0
      ],
      "type": "SCALAR"
    },
    {
      "bufferView": 2,
      "byteOffset": 62328,
      "componentType": 5126,
      "count": 2251,
      "max": [
        27.425100326538086,
        24.296699523925781,
        129.19970703125
      ],
      "min": [
        -36.521099090576172,
        -16.115999221801758,
        1.0336999893188477
      ],
      "type": "VEC3"
    },
    {
      "bufferView": 2,
      "byteOffset": 89340,
      "componentType": 5126,
      "count": 2251,
      "max": [
        0.99993956089019775,
        0.99966651201248169,
        0.99727028608322144
      ],
      "min": [
        -0.99853473901748657,
        -0.99961918592453003,
        -0.9999840259552002
      ],
      "type": "VEC3"
    },
    {
      "bufferView": 3,
      "byteOffset": 41552,
      "componentType": 5126,
      "count": 2251,
      "max": [
        0.9998633861541748,
        0.99977761507034302,
        0.99834978580474854,
        1
      ],
      "min": [
        -0.99974435567855835,
        -0.99980765581130981,
        -0.99972105026245117,
        -1
      ],
      "type": "VEC4"
    },
    {
      "bufferView": 1,
      "byteOffset": 20776,
      "componentType": 5126,
      "count": 2251,
      "max": [
        0.9878000020980835,
        0.99419999122619629
      ],
      "min": [
        0.013199999928474426,
        0.0049000000581145287
      ],
      "type": "VEC2"
    },
    {
      "bufferView": 0,
      "byteOffset": 46920,
      "componentType": 5125,
      "count": 9999,
      "max": [
        2250
      ],
      "min": [
        0
      ],
      "type": "SCALAR"
    },
    {
      "bufferView": 2,
      "byteOffset": 116352,
      "componentType": 5126,
      "count": 452,
      "max": [
        27.833799362182617,
        11.407099723815918,
        128.54209899902344
      ],
      "min": [
        -16.9197998046875,
        -17.118900299072266,
        1.2926000356674194
      ],
      "type": "VEC3"
    },
    {
      "bufferView": 2,
      "byteOffset": 121776,
      "componentType": 5126,
      "count": 452,
      "max": [
        0.99988996982574463,
        0.9989134669303894,
        0.99933218955993652
      ],
      "min": [
        -0.98892784118652344,
        -0.99680155515670776,
        -0.99980002641677856
      ],
      "type": "VEC3"
    },
    {
      "bufferView": 3,
      "byteOffset": 77568,
      "componentType": 5126,
      "count": 452,
      "max": [
        0.99993103742599487,
        0.99922853708267212,
        0.9996064305305481,
        1
      ],
      "min": [
        -0.9928586483001709,
        -0.99733883142471313,
        -0.9996182918548584,
        -1
      ],
      "type": "VEC4"
    },
    {
      "bufferView": 1,
      "byteOffset": 38784,
      "componentType": 5126,
      "count": 452,
      "max": [
        0.98879998922348022,
        0.9814000129699707
      ],
      "min": [
        0.0054000001400709152,
        0.064900003373622894
      ],
      "type": "VEC2"
    },
    {
      "bufferView": 0,
      "byteOffset": 86916,
      "componentType": 5125,
      "count": 1839,
      "max": [
        451
      ],
      "min": [
        0
      ],
      "type": "SCALAR"
    },
    {
      "bufferView": 2,
      "byteOffset": 127200,
      "componentType": 5126,
      "count": 2225,
      "max": [
        44.85150146484375,
        27.318300247192383,
        176.22970581054688
      ],
      "min": [
        -40.243000030517578,
        -16.109500885009766,
        91.851699829101562
      ],
      "type": "VEC3"
    },
    {
      "bufferView": 2,
      "byteOffset": 153900,
      "componentType": 5126,
      "count": 2225,
      "max": [
        0.99753624200820923,
        0.99865645170211792,
        0.99910348653793335
      ],
      "min": [
        -0.99981981515884399,
        -0.99940347671508789,
        -0.99687105417251587
      ],
      "type": "VEC3"
    },
    {
      "bufferView": 3,
      "byteOffset": 84800,
      "componentType": 5126,
      "count": 2225,
      "max": [
        0.99987542629241943,
        0.99989914894104004,
        0.99904859066009521,
        1
      ],
      "min": [
        -0.99866706132888794,
        -0.99940931797027588,
        -0.99983590841293335,
        -1
      ],
      "type": "VEC4"
    },
    {
      "bufferView": 1,
      "byteOffset": 42400,
      "componentType": 5126,
      "count": 2225,
      "max": [
        0.99320000410079956,
        0.99059998989105225
      ],
      "min": [
        0.0093000000342726707,
        0.0082999998703598976
      ],
      "type": "VEC2"
    },
    {
      "bufferView": 0,
      "byteOffset": 94272,
      "componentType": 5125,
      "count": 9999,
      "max": [
        2224
      ],
      "min": [
        0
      ],
      "type": "SCALAR"
    },
    {
      "bufferView": 2,
      "byteOffset": 180600,
      "componentType": 5126,
      "count": 1202,
      "max": [
        44.85150146484375,
        19.655099868774414,
        176.22970581054688
      ],
      "min": [
        -38.087100982666016,
        -14.902999877929688,
        93.03289794921875
      ],
      "type": "VEC3"
    },
    {
      "bufferView": 2,
      "byteOffset": 195024,
      "componentType": 5126,
      "count": 1202,
      "max": [
        0.99753624200820923,
        0.99865645170211792,
        0.98633962869644165
      ],
      "min": [
        -0.99960833787918091,
        -0.99919807910919189,
        -0.99582576751708984
      ],
      "type": "VEC3"
    },
    {
      "bufferView": 3,
      "byteOffset": 120400,
      "componentType": 5126,
      "count": 1202,
      "max": [
        0.99933117628097534,
        0.99779242277145386,
        0.99959868192672729,
        1
      ],
      "min": [
        -0.99844819307327271,
        -0.99889320135116577,
        -0.99714893102645874,
        -1
      ],
      "type": "VEC4"
    },
    {
      "bufferView": 1,
      "byteOffset": 60200,
      "componentType": 5126,
      "count": 1202,
      "max": [
        0.99320000410079956,
        0.99059998989105225
      ],
      "min": [
        0.0093000000342726707,
        0.0082999998703598976
      ],
      "type": "VEC2"
    },
    {
      "bufferView": 0,
      "byteOffset": 134268,
      "componentType": 5125,
      "count": 5583,
      "max": [
        1201
      ],
      "min": [
        0
      ],
      "type": "SCALAR"
    }
  ],
  "asset": {
    "generator": "Sketchfab (OSG glTF plugin)",
    "version": "2.0"
  },
  "bufferViews": [
    {
      "buffer": 0,
      "byteLength": 156600,
      "byteOffset": 0,
      "name": "floatBufferViews",
      "target": 34963
    },
    {
      "buffer": 0,
      "byteLength": 69816,
      "byteOffset": 156600,
      "byteStride": 8,
      "name": "floatBufferViews",
      "target": 34962
    },
    {
      "buffer": 0,
      "byteLength": 209448,
      "byteOffset": 226416,
      "byteStride": 12,
      "name": "floatBufferViews",
      "target": 34962
    },
    {
      "buffer": 0,
      "byteLength": 139632,
      "byteOffset": 435864,
      "byteStride": 16,
      "name": "floatBufferViews",
      "target": 34962
    }
  ],
  "buffers": [
    {
      "byteLength": 575496,
      "uri": "scene.bin"
    }
  ],
  "images": [
    {
      "uri": "textures/DLC8_Batman_Beyond_Head_MAT_baseColor.png"
    },
    {
      "uri": "textures/DLC8_Batman_Beyond_Head_MAT_metallicRoughness.png"
    },
    {
      "uri": "textures/DLC8_Batman_Beyond_Head_MAT_emissive.png"
    },
    {
      "uri": "textures/DLC8_Batman_Beyond_Legs_MAT_baseColor.png"
    },
    {
      "uri": "textures/DLC8_Batman_Beyond_Legs_MAT_metallicRoughness.png"
    },
    {
      "uri": "textures/DLC8_Batman_Beyond_Legs_MAT_emissive.png"
    },
    {
      "uri": "textures/DLC8_Batman_Beyond_Torso_MAT_baseColor.png"
    },
    {
      "uri": "textures/DLC8_Batman_Beyond_Torso_MAT_metallicRoughness.png"
    },
    {
      "uri": "textures/DLC8_Batman_Beyond_Torso_MAT_emissive.png"
    }
  ],
  "materials": [
    {
      "doubleSided": true,
      "emissiveFactor": [
        0,
        0,
        0
      ],
      "emissiveTexture": {
        "index": 2,
        "texCoord": 0
      },
      "name": "DLC8_Batman_Beyond_Head_MAT",
      "pbrMetallicRoughness": {
        "baseColorFactor": [
          1,
          1,
          1,
          1
        ],
        "baseColorTexture": {
          "index": 0,
          "texCoord": 0
        },
        "metallicFactor": 0,
        "metallicRoughnessTexture": {
          "index": 1,
          "texCoord": 0
        },
        "roughnessFactor": 0.20000000000000001
      }
    },
    {
      "doubleSided": true,
      "emissiveFactor": [
        0,
        0,
        0
      ],
      "emissiveTexture": {
        "index": 5,
        "texCoord": 0
      },
      "name": "DLC8_Batman_Beyond_Legs_MAT",
      "pbrMetallicRoughness": {
        "baseColorFactor": [
          1,
          1,
          1,
          1
        ],
        "baseColorTexture": {
          "index": 3,
          "texCoord": 0
        },
        "metallicFactor": 0,
        "metallicRoughnessTexture": {
          "index": 4,
          "texCoord": 0
        },
        "roughnessFactor": 0.20000000000000001
      }
    },
    {
      "doubleSided": true,
      "emissiveFactor": [
        0,
        0,
        0
      ],
      "emissiveTexture": {
        "index": 8,
        "texCoord": 0
      },
      "name": "DLC8_Batman_Beyond_Torso_MAT",
      "pbrMetallicRoughness": {
        "baseColorFactor": [
          1,
          1,
          1,
          1
        ],
        "baseColorTexture": {
          "index": 6,
          "texCoord": 0
        },
        "metallicFactor": 0,
        "metallicRoughnessTexture": {
          "index": 7,
          "texCoord": 0
        },
        "roughnessFactor": 0.20000000000000001
      }
    }
  ],
  "meshes": [
    {
      "primitives": [
        {
          "attributes": {
            "NORMAL": 1,
            "POSITION": 0,
            "TANGENT": 2,
            "TEXCOORD_0": 3
          },
          "indices": 4,
          "material": 0,
          "mode": 4
        }
      ]
    },
    {
      "primitives": [
        {
          "attributes": {
            "NORMAL": 6,
            "POSITION": 5,
            "TANGENT": 7,
            "TEXCOORD_0": 8
          },
          "indices": 9,
          "material": 0,
          "mode": 4
        }
      ]
    },
    {
      "primitives": [
        {
          "attributes": {
            "NORMAL": 11,
            "POSITION": 10,
            "TANGENT": 12,
            "TEXCOORD_0": 13
          },
          "indices": 14,
          "material": 1,
          "mode": 4
        }
      ]
    },
    {
      "primitives": [
        {
          "attributes": {
            "NORMAL": 16,
            "POSITION": 15,
            "TANGENT": 17,
            "TEXCOORD_0": 18
          },
          "indices": 19,
          "material": 1,
          "mode": 4
        }
      ]
    },
    {
      "primitives": [
        {
          "attributes": {
            "NORMAL": 21,
            "POSITION": 20,
            "TANGENT": 22,
            "TEXCOORD_0": 23
          },
          "indices": 24,
          "material": 2,
          "mode": 4
        }
      ]
    },
    {
      "primitives": [
        {
          "attributes": {
            "NORMAL": 26,
            "POSITION": 25,
            "TANGENT": 27,
            "TEXCOORD_0": 28
          },
          "indices": 29,
          "material": 2,
          "mode": 4
        }
      ]
    }
  ],
  "nodes": [
    {
      "children": [
        1
      ],
      "name": "RootNode (gltf orientation matrix)",
      "rotation": [
        -0.70710678118654746,
        -0,
        -0,
        0.70710678118654757
      ]
    },
    {
      "children": [
        2
      ],
      "name": "RootNode (model correction matrix)"
    },
    {
      "children": [
        3
      ],
      "name": "CV_DLC8_Batman_Beyond.obj.cleaner"
    },
    {
      "children": [
        4,
        5,
        6,
        7,
        8,
        9
      ],
      "name": "Geode"
    },
    {
      "mesh": 0,
      "name": ""
    },
    {
      "mesh": 1,
      "name": ""
    },
    {
      "mesh": 2,
      "name": ""
    },
    {
      "mesh": 3,
      "name": ""
    },
    {
      "mesh": 4,
      "name": ""
    },
    {
      "mesh": 5,
      "name": ""
    }
  ],
  "samplers": [
    {
      "magFilter": 9729,
      "minFilter": 9987,
      "wrapS": 10497,
      "wrapT": 10497
    }
  ],
  "scene": 0,
  "scenes": [
    {
      "name": "OSG_Scene",
      "nodes": [
        0
      ]
    }
  ],
  "textures": [
    {
      "sampler": 0,
      "source": 0
    },
    {
      "sampler": 0,
      "source": 1
    },
    {
      "sampler": 0,
      "source": 2
    },
    {
      "sampler": 0,
      "source": 3
    },
    {
      "sampler": 0,
      "source": 4
    },
    {
      "sampler": 0,
      "source": 5
    },
    {
      "sampler": 0,
      "source": 6
    },
    {
      "sampler": 0,
      "source": 7
    },
    {
      "sampler": 0,
      "source": 8
    }
  ]
}

