{"asset":{"version":"2.0","generator":"Babylon2Gltf2017","copyright":"2017 (c) BabylonJS"},"scene":0,"scenes":[{"nodes":[0]}],"nodes":[{"mesh":0,"translation":[0.0,0.0,0.0],"rotation":[0.0,0.0,0.0,-1.0],"scale":[1.0,1.0,1.0],"name":"Teapot"}],"meshes":[{"primitives":[{"attributes":{"POSITION":1,"NORMAL":2,"TEXCOORD_0":3},"indices":0,"mode":4,"material":0}],"name":"Teapot"}],"accessors":[{"bufferView":0,"componentType":5123,"count":9240,"type":"SCALAR","name":"accessorIndices"},{"bufferView":1,"componentType":5126,"count":9240,"max":[137.3528,126.0,80.0],"min":[-120.0,0.0,-80.0],"type":"VEC3","name":"accessorPositions"},{"bufferView":1,"byteOffset":110880,"componentType":5126,"count":9240,"type":"VEC3","name":"accessorNormals"},{"bufferView":2,"componentType":5126,"count":9240,"type":"VEC2","name":"accessorUVs"}],"bufferViews":[{"buffer":0,"byteLength":18480,"name":"bufferViewScalar"},{"buffer":0,"byteOffset":18480,"byteLength":221760,"byteStride":12,"name":"bufferViewFloatVec3"},{"buffer":0,"byteOffset":240240,"byteLength":73920,"byteStride":8,"name":"bufferViewFloatVec2"}],"buffers":[{"uri":"Teapot.bin","byteLength":314160}],"materials":[{"pbrMetallicRoughness":{"baseColorFactor":[1.0,1.0,1.0,1.0],"baseColorTexture":{"index":1},"metallicFactor":1.0,"roughnessFactor":1.0,"metallicRoughnessTexture":{"index":2}},"normalTexture":{"index":0},"emissiveFactor":[0.0,0.0,0.0],"alphaMode":"OPAQUE","name":"default"}],"textures":[{"sampler":0,"source":0,"name":"Teapot_DefaultMaterial_Normal.png"},{"sampler":1,"source":1,"name":"default_baseColor.png"},{"sampler":2,"source":2,"name":"default_metallicRoughness.jpg"}],"images":[{"uri":"Teapot_DefaultMaterial_Normal.png"},{"uri":"default_baseColor.png"},{"uri":"default_metallicRoughness.jpg"}],"samplers":[{"magFilter":9729,"minFilter":9987,"wrapS":10497,"wrapT":10497},{"magFilter":9729,"minFilter":9987,"wrapS":10497,"wrapT":10497},{"magFilter":9729,"minFilter":9987,"wrapS":10497,"wrapT":10497}]}