{
  "accessors": [
    {
      "name": "80723_AgateBookendGreen001_1_positions",
      "componentType": 5126,
      "count": 1160,
      "min": [
        -65.24970245361328,
        -0.17440000176429749,
        -18.38129997253418
      ],
      "max": [
        65.22650146484375,
        86.56289672851562,
        18.361099243164062
      ],
      "type": "VEC3",
      "bufferView": 0,
      "byteOffset": 0
    },
    {
      "name": "80723_AgateBookendGreen001_1_normals",
      "componentType": 5126,
      "count": 1160,
      "min": [
        -1,
        -1,
        -0.9997000098228455
      ],
      "max": [
        1,
        0.9919999837875366,
        1
      ],
      "type": "VEC3",
      "bufferView": 0,
      "byteOffset": 13920
    },
    {
      "name": "80723_AgateBookendGreen001_1_texcoords",
      "componentType": 5126,
      "count": 1160,
      "min": [
        -0.000699999975040555,
        0.0020000000949949026
      ],
      "max": [
        0.7595000267028809,
        0.9979000091552734
      ],
      "type": "VEC2",
      "bufferView": 1,
      "byteOffset": 0
    },
    {
      "name": "80723_AgateBookendGreen001_1_0_indices",
      "componentType": 5123,
      "count": 6090,
      "min": [
        0
      ],
      "max": [
        1159
      ],
      "type": "SCALAR",
      "bufferView": 2,
      "byteOffset": 0
    }
  ],
  "asset": {
    "generator": "obj2gltf",
    "version": "2.0"
  },
  "buffers": [
    {
      "name": "model1",
      "byteLength": 201376,
      "uri": "data:application/octet-stream;base64,"
    }
  ],
  "bufferViews": [
    {
      "name": "bufferView_0",
      "buffer": 0,
      "byteLength": 27840,
      "byteOffset": 0,
      "byteStride": 12,
      "target": 34962
    },
    {
      "name": "bufferView_1",
      "buffer": 0,
      "byteLength": 9280,
      "byteOffset": 27840,
      "byteStride": 8,
      "target": 34962
    },
    {
      "name": "bufferView_2",
      "buffer": 0,
      "byteLength": 12180,
      "byteOffset": 37120,
      "target": 34963
    },
    {
      "buffer": 0,
      "byteOffset": 49300,
      "byteLength": 152073
    }
  ],
  "images": [
    {
      "name": "080723_100725_0",
      "mimeType": "image/jpeg",
      "bufferView": 3
    }
  ],
  "materials": [
    {
      "name": "Agate_Green",
      "pbrMetallicRoughness": {
        "baseColorTexture": {
          "index": 0
        },
        "baseColorFactor": [
          1,
          1,
          1,
          1
        ],
        "metallicFactor": 0.5,
        "roughnessFactor": 0.99
      },
      "emissiveFactor": [
        0,
        0,
        0
      ],
      "alphaMode": "OPAQUE",
      "doubleSided": false
    }
  ],
  "meshes": [
    {
      "name": "80723_AgateBookendGreen001_1",
      "primitives": [
        {
          "attributes": {
            "POSITION": 0,
            "NORMAL": 1,
            "TEXCOORD_0": 2
          },
          "indices": 3,
          "material": 0,
          "mode": 4
        }
      ]
    }
  ],
  "nodes": [
    {
      "name": "80723_AgateBookendGreen001",
      "mesh": 0
    }
  ],
  "samplers": [
    {
      "magFilter": 9729,
      "minFilter": 9986,
      "wrapS": 10497,
      "wrapT": 10497
    }
  ],
  "scene": 0,
  "scenes": [
    {
      "nodes": [
        0
      ]
    }
  ],
  "textures": [
    {
      "name": "080723_100725_0",
      "sampler": 0,
      "source": 0
    }
  ]
}
